# xmcd
#
# Track frame offsets: 
#        150
#        17395
#        33861
#        48260
#        65684
#        81040
#        98656
#        114712
#        133268
#        151260
#        170519
#
# Disc length: 2644 seconds
#
# Revision: 0
# Processed by: cddbd v1.5.2PL0 Copyright (c) Steve Scherf et al.
# Submitted via: ExactAudioCopyFreeDBPlugin 1.0
#
DISCID=830a520b
DTITLE=Wink Keziah - Hard Times
DYEAR=2009
DGENRE=Country
TTITLE0=Sometimes You Win
TTITLE1=Sweet Jesus
TTITLE2=Country Comes To Town
TTITLE3=Lost Highway
TTITLE4=Chain Link Fence
TTITLE5=San Antonio
TTITLE6=Running Away From My Life
TTITLE7=Where You Comin' From
TTITLE8=Hands Of God
TTITLE9=Honky Tonk Rendezvous
TTITLE10=Red Wine
EXTD=
EXTT0=
EXTT1=
EXTT2=
EXTT3=
EXTT4=
EXTT5=
EXTT6=
EXTT7=
EXTT8=
EXTT9=
EXTT10=
PLAYORDER=
